<?xml version="1.0"?>
<svg xmlns="http://www.w3.org/2000/svg" xmlns:xlink="http://www.w3.org/1999/xlink" xmlns:svgjs="http://svgjs.com/svgjs" version="1.1" width="512" height="512" x="0" y="0" viewBox="0 0 60 55" style="enable-background:new 0 0 512 512" xml:space="preserve" class=""><g><g xmlns="http://www.w3.org/2000/svg" id="Page-1" fill="none" fill-rule="evenodd"><g id="038---Spilling-Coffee" fill="rgb(0,0,0)" fill-rule="nonzero"><path id="Shape" d="m12.686 48.571c3.9097218 4.1230204 9.3480274 6.4492257 15.03 6.429 11.231 0 21.742-8.317 24.5-10.681.122471-.0817759.2372744-.1744888.343-.277.008-.007.019-.009.028-.017 2.549-2.23 6.9-7.4 7.381-16.991.427-8.419-3.013-12.845-6.374-14.18-1.891-.749-3.756-.477-4.756.7-.477.559-1.41 2.155.212 4.874 2.1998555 3.5155582 1.5650329 8.1021199-1.507 10.888-2.2349517-2.933263-4.6661927-5.7116333-7.277-8.316-8.79-8.781-19.506-15.844-22.982-12.372-.0900962.09841814-.1723476.20374004-.246.315-.0249074.022744-.0486066.04677692-.071.072-.276.32-.642.761-1.062 1.288-1.6350632-1.84837395-3.8326184-3.10773403-6.254-3.584-2.40585011-.31168801-4.81349039.56242818-6.459 2.345-2.65835071 2.5189834-3.76479881 6.2683164-2.9 9.827.60162889 2.3652287 1.84787567 4.5170814 3.6 6.216.93251405.9302958 1.97642604 1.7417796 3.108 2.416-1.619 6.81-.939 14.424 5.686 21.048zm-5.24-33.778c.19598845-.4202287.55220583-.7443901.989-.9.38022196-.1079946.78805868-.0559765 1.129.144.8948516.5474842 1.6636983 1.2781612 2.256 2.144-.877259 1.4538977-1.6767172 2.9533409-2.395 4.492-1.591-1.343-3.196-3.581-1.979-5.88zm6.654 32.364c-12.022-12.021-2.448-27.91 2.474-34.457.167763.7403688.398606 1.465015.69 2.166 1.854 4.572 6.485 10.827 12.389 16.731l.666.657c5.962 5.84 13.357 11.351 18.244 12.423-6.544 4.923-22.442 14.503-34.463 2.48zm5.639-31.675c2.9878878.0690511 5.7814816 1.495849 7.589 3.876 1.356 1.815 1.353 4.087 1.35 6.285 0 .7 0 1.409.049 2.106-3.5390387-3.6619722-6.5628284-7.7889002-8.988-12.267zm31.03 1.918c-.666-1.117-.819-2.072-.408-2.554.7357163-.5286363 1.7116352-.5813359 2.5-.135 2.593 1.031 5.489 4.849 5.115 12.221-.447 8.851-4.389 13.566-6.7 15.588-.018.016-.026.039-.043.057s-.054.029-.076.05c-.0515316.0269801-.1009996.0577305-.148.092-1.02.532-3.584-.163-7.141-2.247 3.087753-.7177679 5.861291-2.4131754 7.908-4.834.241349-.2738752.3142862-.6575016.190285-1.0008392-.1240011-.3433376-.4252356-.5918267-.7858876-.6482809-.3606521-.0564541-.7234107.0880978-.9463974.3771201-2.260311 2.5897114-5.4286625 4.2127264-8.851 4.534-2.0561562-1.4175723-4.0281505-2.9534974-5.906-4.6.513.067 1.048.123 1.63.154 3.8512915.3585988 7.7044253-.6659258 10.869-2.89l.011-.008c4.5115153-3.2491234 5.728412-9.4412116 2.782-14.156zm-11.916 5.007c2.5468133 2.540868 4.9188912 5.2510505 7.1 8.112-2.6473011 1.5224544-5.6975775 2.197075-8.74 1.933-2.689-.144-4.456-.692-5.406-1.678-1.135-1.171-1.133-3.005-1.13-5.129 0-2.407.006-5.135-1.747-7.484-2.400326-3.0924296-6.1430347-4.8396474-10.055-4.694-.749-2.107-.474-2.983-.3-3.269l.027-.046c.0272942-.0417449.0591577-.0803165.095-.115 1.619-1.62 10.073 2.298 20.156 12.37zm-33.553 1.286c-1.48767985-1.4373823-2.54821016-3.2586977-3.064-5.262-.69076472-2.8851742.21485707-5.9194268 2.374-7.954 1.20924721-1.33298436 2.99057022-1.99562011 4.777-1.777 2.0691718.45180803 3.930016 1.5772477 5.291 3.2-.542.736-1.129 1.575-1.733 2.5-.6670082-.8542888-1.4923894-1.5720411-2.431-2.114-.81260483-.4535737-1.77388946-.5599424-2.666-.295-.94699934.3086031-1.72986275.9854988-2.172 1.878-1.718 3.24.224 6.66 2.924 8.71-.385.953-.738 1.933-1.047 2.938-.81213825-.5283387-1.56719101-1.1396197-2.253-1.824z" fill="#ffffff" data-original="#000000" style="" class=""/><path id="Shape" d="m16.946 34.474c-3.5 3.49-4.138 8.551-1.416 11.286.3288484.3198145.6963605.5972962 1.094.826.016.007.031.017.048.024.9808742.5586429 2.0922453.8474406 3.221.837 2.6230714-.0883816 5.1070277-1.2012974 6.919-3.1 3.5-3.49 4.138-8.552 1.415-11.286s-7.79-2.086-11.281 1.413zm1.412 1.417c1.4341982-1.5282542 3.4065722-2.4387737 5.5-2.539.4599678.0020085.9171585.0714125 1.357.206-.3050687.6128222-.4964981 1.2758793-.565 1.957-.0747187 1.575037-1.3358617 2.8344471-2.911 2.907-2.453545.2004966-4.4018381 2.1466743-4.605 4.6-.0408129.408637-.1419092.8089786-.3 1.188-1.795-1.985-1.134-5.667 1.524-8.319zm7.042 7.039c-2.092 2.1-4.822 2.948-6.856 2.343.3087966-.6151822.501679-1.2819655.569-1.967.0750939-1.5735515 1.3343972-2.8319887 2.908-2.906 2.4535641-.2008345 4.4019674-2.1466998 4.606-4.6.040939-.4082921.1420325-.8082855.3-1.187 1.792 1.98 1.134 5.662-1.527 8.317z" fill="#ffffff" data-original="#000000" style="" class=""/><path id="Shape" d="m43.849 10.408c.3840513.0980201.7786439.1487295 1.175.151.8564914.0290476 1.6886493-.2877418 2.309-.879.8427868-.9487387 1.1198138-2.27298854.728-3.48-.3828568-1.36435158-1.1221984-2.60211019-2.142-3.586-.9838873-1.01958928-2.2216793-1.7586056-3.586-2.141-1.2079956-.39425005-2.5344827-.11745437-3.484.727-.8449773.94963131-1.1221579 2.27651921-.728 3.485.3820062 1.3647171 1.1214733 2.60268587 2.142 3.586.9840284 1.01855013 2.2218987 1.7562324 3.586 2.137zm-3.586-7.8c.2446018-.21111018.5626525-.31712708.885-.295.2362801.00285543.4713372.03442024.7.094 1.0108803.29782339 1.9264339.85453234 2.656 1.615.7612734.73006627 1.3186677 1.64630251 1.617 2.658.2050526.52856713.1298547 1.1248865-.2 1.586-.4613867.32915634-1.0573416.40430828-1.586.2-1.0109676-.29815054-1.9265213-.85520428-2.656-1.616-.7612217-.72710236-1.3190158-1.6406711-1.618-2.65-.2061107-.53036171-.1301086-1.12897286.202-1.591z" fill="#ffffff" data-original="#000000" style="" class=""/></g></g></g></svg>
